<?xml version="1.0" encoding="UTF-8" standalone="no"?>
<svg
   xmlns:dc="http://purl.org/dc/elements/1.1/"
   xmlns:cc="http://creativecommons.org/ns#"
   xmlns:rdf="http://www.w3.org/1999/02/22-rdf-syntax-ns#"
   xmlns:svg="http://www.w3.org/2000/svg"
   xmlns="http://www.w3.org/2000/svg"
   width="3000"
   height="450"
   viewBox="0 0 793.74996 119.0625"
   version="1.1"
   id="svg8">
  <defs
     id="defs2">
    <path
       d="m 213,0 -4,39 -5,39 -20,9 -20,9 -32,-26 -31,-25 -27,27 -27,27 25,31 25,32 -9,19 -9,19 -35,5 c -20,3 -37,5 -40,6 -3,1 -4,12 -4,39 v 37 l 39,4 c 24,3 40,6 40,8 0,2 3,12 8,21 l 8,18 -25,30 -25,31 27,27 27,27 30,-23 30,-24 18,9 c 10,5 20,10 22,10 1,1 4,16 7,34 2,18 4,34 5,37 1,3 11,4 38,4 h 38 l 4,-36 c 3,-28 5,-37 10,-38 3,-1 13,-5 23,-10 l 17,-8 29,24 30,23 26,-27 c 20,-20 26,-28 24,-31 -2,-3 -13,-16 -23,-29 l -20,-25 9,-18 c 5,-10 8,-20 8,-22 0,-4 8,-6 52,-11 l 22,-3 1,-38 1,-38 -38,-4 c -23,-3 -38,-6 -38,-8 0,-2 -3,-12 -8,-22 l -9,-19 24,-29 24,-30 L 428,74 401,47 371,71 341,95 320,86 299,77 294,40 289,2 251,1 Z m 37,170 c 44,0 80,36 80,80 0,44 -36,80 -80,80 -44,0 -80,-36 -80,-80 0,-44 36,-80 80,-80 z"
       transform="scale(0.4)"
       fill="#8b0000"
       id="cog" />
  </defs>
  <metadata
     id="metadata5">
    <rdf:RDF>
      <cc:Work
         rdf:about="">
        <dc:format>image/svg+xml</dc:format>
        <dc:type
           rdf:resource="http://purl.org/dc/dcmitype/StillImage" />
        <dc:title></dc:title>
      </cc:Work>
    </rdf:RDF>
  </metadata>
  <g
     id="layer1">
    <path
       id="circle843"
       style="fill:#ffffff;fill-opacity:1;stroke:none;stroke-width:7.65537;stroke-miterlimit:4;stroke-dasharray:none;stroke-dashoffset:0;stroke-opacity:1"
       d="m 221.82155,-195.5933 a 37.927214,37.927214 0 0 0 -37.92694,37.92696 37.927214,37.927214 0 0 0 37.92694,37.92754 37.927214,37.927214 0 0 0 37.9275,-37.92754 37.927214,37.927214 0 0 0 -37.9275,-37.92696 z m -0.0458,7.61761 a 30.309345,30.309345 0 0 1 0.0458,0 30.309345,30.309345 0 0 1 30.30933,30.30935 30.309345,30.309345 0 0 1 -30.30933,30.30936 30.309345,30.309345 0 0 1 -30.30934,-30.30936 30.309345,30.309345 0 0 1 30.26356,-30.30935 z" />
    <g
       id="g1052"
       transform="matrix(1.0641043,0,0,1.0641043,-1.1280537,-2.3120611)">
      <path
         d="M 54.055124,22.691502 A 38.140197,38.140197 0 0 0 15.914637,60.831396 38.140197,38.140197 0 0 0 54.055124,98.971816 38.140197,38.140197 0 0 0 92.195039,60.831396 38.140197,38.140197 0 0 0 54.055124,22.691502 Z m -0.03807,5.123397 a 33.124952,33.016731 0 0 1 0.03807,0 A 33.124952,33.016731 0 0 1 87.18019,60.831396 33.124952,33.016731 0 0 1 54.055124,93.848446 33.124952,33.016731 0 0 1 20.930056,60.831396 33.124952,33.016731 0 0 1 54.017047,27.814899 Z"
         style="fill:#ffffff;fill-opacity:1;stroke:none;stroke-width:5.49882;stroke-miterlimit:4;stroke-dasharray:none;stroke-dashoffset:0;stroke-opacity:1"
         id="path833" />
      <path
         d="m 50.086347,55.153216 c -2.171557,0 -3.919657,1.748099 -3.919657,3.919659 0,2.171557 1.7481,3.919656 3.919657,3.919656 h 34.200496 a 30.309343,30.309343 0 0 0 0.077,-2.161108 30.309343,30.309343 0 0 0 -0.536919,-5.678207 z m 41.467753,0 a 37.927213,37.927213 0 0 1 0.427882,5.678207 37.927213,37.927213 0 0 1 -0.0615,2.161108 h 27.892878 c 2.17156,0 3.91965,-1.748099 3.91965,-3.919656 0,-2.17156 -1.74809,-3.919659 -3.91965,-3.919659 z"
         style="fill:#ffffff;fill-opacity:1;stroke:none;stroke-width:7;stroke-miterlimit:4;stroke-dasharray:none;stroke-dashoffset:0;stroke-opacity:1"
         id="rect890" />
      <path
         d="m 50.086347,65.736549 c -2.171557,0 -3.919657,1.748099 -3.919657,3.919659 0,2.171557 1.7481,3.919656 3.919657,3.919656 h 31.467848 a 30.309343,30.309343 0 0 0 2.410187,-7.839315 z m 41.576791,0 a 37.927213,37.927213 0 0 1 -1.886707,7.839315 h 30.036929 c 2.17156,0 3.91965,-1.748099 3.91965,-3.919656 0,-2.17156 -1.74809,-3.919659 -3.91965,-3.919659 z"
         style="fill:#ffffff;fill-opacity:1;stroke:none;stroke-width:7;stroke-miterlimit:4;stroke-dasharray:none;stroke-dashoffset:0;stroke-opacity:1"
         id="rect892" />
      <path
         d="m 50.086347,76.319366 c -2.171557,0 -3.919657,1.748615 -3.919657,3.920175 0,2.171557 1.7481,3.919657 3.919657,3.919657 h 23.318991 a 30.309343,30.309343 0 0 0 6.702432,-7.839832 z m 38.588859,0 a 37.927213,37.927213 0 0 1 -4.715991,7.839832 h 35.854145 c 2.17156,0 3.91965,-1.7481 3.91965,-3.919657 0,-2.17156 -1.74809,-3.920175 -3.91965,-3.920175 z"
         style="fill:#ffffff;fill-opacity:1;stroke:none;stroke-width:7;stroke-miterlimit:4;stroke-dasharray:none;stroke-dashoffset:0;stroke-opacity:1"
         id="rect894" />
      <path
         d="m 32.47812,40.845046 -1.691368,0.563275 a 30.309343,30.309343 0 0 0 -1.293979,1.664496 c 0.238411,0.965909 0.520742,2.193954 0.421164,2.29185 -0.162375,0.15962 -1.076365,0.915228 -1.557012,1.411801 -0.238813,-0.09529 -0.58683,-0.222814 -0.965833,-0.357601 a 30.309343,30.309343 0 0 0 -1.666047,3.638537 l 0.894001,0.567923 -0.123507,2.065507 -1.893423,0.985469 a 30.309343,30.309343 0 0 0 -0.507463,2.566252 l 0.452686,1.35754 3.482992,-0.851109 1.409216,1.452624 -1.209747,3.515548 3.156398,1.428853 1.950267,-3.171383 1.931149,0.190169 1.618506,3.132627 c 0,2e-6 2.761573,-0.828429 3.315044,-1.070737 -0.315457,-1.028295 -0.742074,-3.522266 -0.742074,-3.522266 l 1.411282,-1.376659 3.421497,1.191657 1.569931,-3.155362 -3.0856,-1.858801 0.219626,-1.99471 2.856156,-1.605587 -1.02371,-3.33158 c 0,0 -3.172804,0.89023 -3.401859,0.592727 -0.229048,-0.297505 -1.414386,-1.468125 -1.414386,-1.468125 l 1.11311,-3.251999 c 0,0 -2.968802,-1.394444 -3.210139,-1.286227 -0.241332,0.10822 -1.695503,2.762107 -1.695503,2.762107 0,0 -1.876491,-0.210145 -2.071193,-0.139009 -0.194696,0.07112 -1.670182,-2.937807 -1.670182,-2.937807 z m 2.030883,7.583517 c 1.558557,-0.07454 3.056321,0.86134 3.618902,2.401403 0.692417,1.895459 -0.293558,3.988959 -2.189014,4.681368 -1.895462,0.692415 -3.983273,-0.278045 -4.675682,-2.173509 -0.692412,-1.895454 0.272362,-3.998778 2.167826,-4.691187 0.355396,-0.129829 0.718301,-0.200874 1.077968,-0.218075 z"
         style="opacity:0.6;fill:#ffffff;fill-opacity:1;fill-rule:evenodd;stroke:none;stroke-width:0.105586px;stroke-linecap:butt;stroke-linejoin:miter;stroke-opacity:1"
         id="path8974" />
      <path
         d="m 54.008588,30.522164 a 30.309343,30.309343 0 0 0 -12.402343,2.674255 l 0.266652,0.289904 -0.654225,1.962671 -3.362068,0.745175 0.210323,3.492291 3.584794,0.0801 0.984435,1.767334 -2.078426,3.083015 2.679425,2.196764 2.704743,-2.558499 1.815909,0.68368 0.752927,3.444751 c 0,0 2.88153,-0.08541 3.478856,-0.176218 -0.03855,-1.074904 0.19482,-3.594613 0.19482,-3.594613 l 1.719792,-0.964282 2.9962,2.036569 2.332675,-2.6417 -2.499074,-2.593639 0.728639,-1.87017 3.174484,-0.811321 -0.126609,-3.483507 c 0,0 -3.294824,0.03865 -3.439067,-0.307991 -0.144251,-0.346654 -0.986502,-1.783871 -0.986502,-1.783871 l 1.019059,-1.517221 a 30.309343,30.309343 0 0 0 -3.049426,-0.153477 30.309343,30.309343 0 0 0 -0.04599,0 z m -4.66948,2.801379 c 1.852827,0.0245 3.430616,1.454359 3.597711,3.338814 0.17824,2.010082 -1.315812,3.777081 -3.325894,3.955312 -2.010087,0.178242 -3.775525,-1.29979 -3.953764,-3.309874 -0.178239,-2.010082 1.297726,-3.792064 3.307807,-3.970301 0.12563,-0.01114 0.250616,-0.01558 0.37414,-0.01394 z"
         style="opacity:0.6;fill:#ffffff;fill-opacity:1;fill-rule:evenodd;stroke:none;stroke-width:0.105586px;stroke-linecap:butt;stroke-linejoin:miter;stroke-opacity:1"
         id="path1016" />
      <path
         d="m 33.026408,70.501634 -3.272668,1.090371 c 0,0 0.870336,3.270139 0.707966,3.429768 -0.162372,0.159617 -1.075846,0.915222 -1.556493,1.411798 -0.259585,-0.103579 -0.650081,-0.244938 -1.067636,-0.39274 1.075716,1.85419 2.345102,3.589028 3.786849,5.175393 0.184351,-1.287722 1.048469,-2.435762 2.354895,-2.912999 1.895461,-0.692407 4.004463,0.288383 4.69687,2.183844 0.692417,1.895465 -0.294072,3.988959 -2.189531,4.681368 -0.116236,0.04246 -0.233045,0.0784 -0.350366,0.108522 1.364612,1.000188 2.810573,1.884362 4.322736,2.643251 l 0.95963,-0.935344 3.420981,1.191656 1.569929,-3.155362 -3.085084,-1.858801 0.219625,-1.99471 2.856156,-1.605587 -1.024226,-3.33158 c 0,5e-6 -3.172298,0.890233 -3.401343,0.59273 -0.229044,-0.297508 -1.414899,-1.468128 -1.414899,-1.468128 l 1.11311,-3.251999 c 0,0 -2.968297,-1.394444 -3.209623,-1.286224 -0.241343,0.108217 -1.696022,2.762104 -1.696022,2.762104 0,0 -1.875972,-0.210658 -2.070674,-0.139525 -0.194702,0.07113 -1.670182,-2.937806 -1.670182,-2.937806 z"
         style="opacity:0.6;fill:#ffffff;fill-opacity:1;fill-rule:evenodd;stroke:none;stroke-width:0.105586px;stroke-linecap:butt;stroke-linejoin:miter;stroke-opacity:1"
         id="path1018" />
      <path
         id="path1020"
         d="m 38.524532,69.433557 3.584555,0.07965 0.984871,1.767677 -2.078518,3.082747 2.679205,2.197125 2.704708,-2.558583 1.81623,0.683639 0.752617,3.444523 c 0,0 2.881776,-0.08519 3.479099,-0.175998 -0.03856,-1.074901 0.194745,-3.594766 0.194745,-3.594766 l 1.719828,-0.96406 2.996216,2.036512 2.332964,-2.641559 -2.499087,-2.594032 0.728569,-1.86992 3.174304,-0.811469 -0.126701,-3.483461 c 0,4e-6 -3.294933,0.0388 -3.439174,-0.307853 -0.144245,-0.346653 -0.986324,-1.784109 -0.986324,-1.784109 l 1.916702,-2.853086 c 0,0 -2.506487,-2.115419 -2.767602,-2.073346 -0.261129,0.04207 -2.352964,2.229264 -2.352964,2.229264 0,0 -1.757671,-0.688833 -1.964147,-0.670525 -0.206465,0.0183 -0.853083,-3.269989 -0.853083,-3.269989 l -3.44329,0.205951 c 0,0 -0.0053,3.384005 -0.203417,3.496168 -0.198155,0.112159 -1.276395,0.605497 -1.869202,0.960746 -0.769871,-0.57495 -2.873896,-1.964549 -2.873896,-1.964549 l -2.165703,2.659856 2.364683,2.572822 -0.654085,1.96269 -3.36235,0.74533 z m 7.590014,-2.378953 c -0.178235,-2.010082 1.29819,-3.791995 3.308266,-3.970228 2.010089,-0.178233 3.793456,1.314623 3.971696,3.324704 0.178234,2.010085 -1.316085,3.777018 -3.326174,3.955251 -2.010076,0.178242 -3.775544,-1.299642 -3.953788,-3.309727 z"
         style="opacity:0.6;fill:#ffffff;fill-opacity:1;fill-rule:evenodd;stroke:none;stroke-width:0.105586px;stroke-linecap:butt;stroke-linejoin:miter;stroke-opacity:1" />
    </g>
    <text
       xml:space="preserve"
       style="font-style:normal;font-weight:normal;font-size:86.5008px;line-height:1.25;font-family:sans-serif;fill:#ffffff;fill-opacity:1;stroke:none;stroke-width:2.16253"
       x="162.43738"
       y="93.559456"
       id="text1042"><tspan
         id="tspan1040"
         x="162.43738"
         y="93.559456"
         style="font-style:normal;font-variant:normal;font-weight:normal;font-stretch:normal;font-size:86.5008px;font-family:'JetBrainsMonoExtraBold Nerd Font';-inkscape-font-specification:'JetBrainsMonoExtraBold Nerd Font, Normal';font-variant-ligatures:normal;font-variant-caps:normal;font-variant-numeric:normal;font-variant-east-asian:normal;fill:#ffffff;stroke-width:2.16253">reflectotron</tspan></text>
  </g>
</svg>
